<svg width="65" height="71" viewBox="0 0 65 71" fill="none" xmlns="http://www.w3.org/2000/svg">
<g clip-path="url(#clip0)">
<path fill-rule="evenodd" clip-rule="evenodd" d="M40.3266 23.5566L41.9715 25.2014C42.4028 25.6328 42.4028 26.3459 41.9715 26.7772L40.6429 28.1058C41.011 28.7902 41.2871 29.5263 41.4654 30.297H43.185C43.8004 30.297 44.3007 30.7973 44.3007 31.4127V33.7419C44.3007 34.3573 43.8004 34.8577 43.185 34.8577H41.3101C41.08 35.6168 40.7522 36.33 40.3381 36.9914L41.5516 38.2049C41.983 38.6362 41.983 39.3493 41.5516 39.7807L39.9068 41.4255C39.4755 41.8569 38.7623 41.8569 38.331 41.4255L37.0082 40.1028C36.3238 40.4708 35.5876 40.7469 34.8112 40.9252V42.6448C34.8112 43.2602 34.3109 43.7605 33.6955 43.7605H31.3663C30.7509 43.7605 30.2505 43.2602 30.2505 42.6448V40.7699C29.4914 40.5398 28.7782 40.212 28.1168 39.7979L26.9148 41.0057C26.4835 41.437 25.7704 41.437 25.339 41.0057L23.6942 39.3609C23.2628 38.9295 23.2628 38.2164 23.6942 37.785L25.017 36.4623C24.6489 35.7779 24.3728 35.0417 24.1945 34.271H22.4749C21.8653 34.271 21.3592 33.7707 21.3592 33.1553V30.8261C21.3592 30.2107 21.8595 29.7104 22.4749 29.7104H24.3498C24.5799 28.9512 24.9077 28.238 25.3218 27.5767L24.1083 26.3632C23.6769 25.9318 23.6769 25.2187 24.1083 24.7873L25.7531 23.1425C26.1844 22.7111 26.8976 22.7111 27.3289 23.1425L28.6575 24.471C29.3419 24.1029 30.078 23.8269 30.8487 23.6486V21.929C30.8487 21.3136 31.349 20.8133 31.9644 20.8133H34.2936C34.909 20.8133 35.4094 21.3136 35.4094 21.929V23.8039C36.1685 24.0339 36.8817 24.3617 37.5431 24.7758L38.7566 23.5623C39.1879 23.1195 39.8953 23.1195 40.3266 23.5566ZM25.3793 58.7021C24.7236 58.7194 24.1485 58.2363 24.0565 57.5749C23.9587 56.8847 24.4246 56.2464 25.1032 56.1141C24.3556 51.8755 22.3139 49.5405 20.1572 47.0732C18.4778 45.1523 16.7352 43.1566 15.3607 40.2178C14.0092 37.3249 13.2673 34.3343 13.2903 31.2287C13.319 28.123 14.1069 24.9254 15.8208 21.6184C15.8323 21.5954 15.8438 21.5782 15.8553 21.5552C18.104 17.7479 21.2499 15.2058 24.7524 13.7795C27.6913 12.5775 30.8832 12.1692 34.0118 12.4568C37.129 12.7443 40.1829 13.722 42.8514 15.2979C46.2446 17.305 49.0339 20.2841 50.5695 24.0454C51.3977 26.0813 51.9613 28.3531 52.0303 30.8433C52.0993 33.3221 51.6737 35.9964 50.5293 38.826C48.9994 42.616 46.975 44.9683 45.0829 47.171C43.3403 49.2011 41.7184 51.0875 40.8155 53.9804C41.3273 54.1012 41.7299 54.521 41.8104 55.0731C41.9082 55.7863 41.4079 56.4477 40.6947 56.5454L40.2576 56.6087C40.1771 57.2356 40.1253 57.9085 40.1023 58.6274L40.2461 58.6044C40.9593 58.5066 41.6207 59.0069 41.7184 59.7201C41.8162 60.4332 41.3158 61.0946 40.6027 61.1924L40.1541 61.2557C40.1599 61.3419 40.1656 61.4282 40.1714 61.5145C40.2116 62.0206 40.2174 62.5094 40.1886 62.9753L40.2634 62.9638C40.9823 62.8775 41.6322 63.3893 41.7242 64.1025C41.8104 64.8214 41.2986 65.4713 40.5854 65.5633L39.6192 65.6841C38.9291 67.4727 37.6983 68.8357 36.2433 69.6754C35.2426 70.2563 34.1326 70.5898 33.0169 70.6589C31.8839 70.7279 30.7394 70.5151 29.6927 70.009C28.4964 69.4224 27.4267 68.4504 26.6503 67.0529C26.2765 66.8631 26.0004 66.495 25.9429 66.0464C25.9199 65.8681 25.9371 65.6956 25.9832 65.5345C25.7589 64.8674 25.5921 64.137 25.4828 63.3318L25.4425 63.3376C24.7294 63.4354 24.068 62.935 23.9702 62.2219C23.8725 61.5087 24.3728 60.8473 25.086 60.7495L25.3965 60.7035C25.4138 60.0019 25.408 59.3348 25.3793 58.7021ZM1.25302 33.8512C0.580128 33.8685 0.0222626 33.3451 -0.000742209 32.6722C-0.023747 31.9993 0.505363 31.4415 1.17825 31.4185L6.18179 31.2459C6.85468 31.2229 7.41255 31.752 7.43555 32.4249C7.45856 33.0978 6.92945 33.6557 6.25656 33.6787L1.25302 33.8512ZM63.6592 28.8994C64.3264 28.8304 64.9245 29.3193 64.9935 29.9864C65.0625 30.6535 64.5737 31.2517 63.9065 31.3207L58.926 31.844C58.2589 31.9131 57.6607 31.4242 57.5917 30.7571C57.5227 30.0899 58.0116 29.4918 58.6787 29.4228L63.6592 28.8994ZM54.5896 8.49994C54.9634 7.94208 55.7168 7.79255 56.2747 8.16637C56.8326 8.5402 56.9821 9.29361 56.6083 9.85147L53.8247 14.0153C53.4509 14.5732 52.6975 14.7227 52.1396 14.3489C51.5817 13.9751 51.4322 13.2217 51.806 12.6638L54.5896 8.49994ZM33.1434 1.18442C33.1606 0.511534 33.7185 -0.0175758 34.3856 -0.000322186C35.0585 0.0169314 35.5876 0.574797 35.5704 1.24194L35.4439 6.24548C35.4266 6.91837 34.8687 7.44748 34.2016 7.43022C33.5287 7.41297 32.9996 6.8551 33.0169 6.18796L33.1434 1.18442ZM7.98192 8.93128C7.48731 8.47119 7.46431 7.70053 7.91865 7.21168C8.37875 6.71707 9.14941 6.69407 9.63826 7.14841L13.3018 10.5646C13.7964 11.0247 13.8194 11.7954 13.365 12.2842C12.9049 12.7788 12.1343 12.8018 11.6454 12.3475L7.98192 8.93128ZM27.536 55.7633L38.1699 54.2507C39.0844 50.3974 41.0743 48.0797 43.231 45.5779C45.0024 43.519 46.8887 41.322 48.269 37.9058C49.2812 35.404 49.6551 33.0575 49.5976 30.8951C49.54 28.7384 49.0454 26.7485 48.3093 24.9484C46.9865 21.7104 44.5653 19.1339 41.6091 17.3855C39.2454 15.988 36.5481 15.1196 33.7933 14.8723C31.05 14.6192 28.2491 14.9815 25.6668 16.034C22.6417 17.2705 19.9214 19.4675 17.966 22.7744C16.4477 25.719 15.746 28.5371 15.723 31.2459C15.7 33.972 16.3614 36.6118 17.5634 39.1826C18.7884 41.8051 20.4217 43.6685 21.9861 45.4629C24.4246 48.258 26.7308 50.8978 27.536 55.7633ZM37.7386 56.9538L27.8063 58.3628C27.835 58.9954 27.8465 59.6568 27.835 60.3585L37.6408 58.9667C37.6523 58.2593 37.6811 57.5864 37.7386 56.9538ZM27.8868 62.9925C27.9558 63.5216 28.0593 64.0047 28.1916 64.4533L37.7098 63.2801C37.7731 62.7855 37.7846 62.2621 37.7386 61.7042V61.6927L37.7328 61.595L27.8868 62.9925ZM29.5431 66.9263C29.9112 67.3117 30.3196 67.6107 30.7509 67.8178C31.4123 68.1398 32.1427 68.2721 32.8616 68.2318C33.6035 68.1858 34.3396 67.9615 35.0125 67.5705C35.6452 67.2024 36.2145 66.6905 36.6689 66.0464L29.5431 66.9263ZM32.8328 27.7032C35.3576 27.7032 37.4108 29.7506 37.4108 32.2811C37.4108 34.8117 35.3633 36.8591 32.8328 36.8591C30.3023 36.8591 28.2549 34.8117 28.2549 32.2811C28.2549 29.7506 30.3081 27.7032 32.8328 27.7032Z" fill="#E0E0E0"/>
</g>
<defs>
<clipPath id="clip0">
<rect width="65" height="70.6707" fill="white"/>
</clipPath>
</defs>
</svg>
