<svg width="48" height="83" viewBox="0 0 48 83" fill="none" xmlns="http://www.w3.org/2000/svg">
<g clip-path="url(#clip0)">
<path fill-rule="evenodd" clip-rule="evenodd" d="M8.52976 0H39.4635C41.8106 0 43.9631 0.972656 45.4987 2.51945C47.0545 4.08651 47.9933 6.2277 47.9933 8.59855V74.4082C47.9933 76.7723 47.0277 78.9405 45.4987 80.4873C43.943 82.0544 41.8173 83.0068 39.4635 83.0068H8.52976C6.18273 83.0068 4.03018 82.0341 2.49455 80.4873C0.93881 78.9202 0 76.7791 0 74.4082V8.59855C0 6.23446 0.965633 4.06624 2.50126 2.51945C4.057 0.945638 6.18273 0 8.52976 0ZM28.7745 51.0509H28.8885C29.7536 51.0509 30.4711 51.7737 30.4711 52.645V62.8782H31.4971V58.589C31.4971 57.7785 32.1609 57.1098 32.9656 57.1098H33.0796C33.9447 57.1098 34.6622 57.8325 34.6622 58.7039V62.9862L34.7158 62.966H35.8223V59.7103C35.8223 58.8997 36.4862 58.231 37.2909 58.231H37.3982C38.2632 58.231 38.9807 58.9538 38.9807 59.8251V62.8039H38.9874L40.0872 62.7904V60.6829C40.0872 59.8724 40.7511 59.2037 41.5557 59.2037H41.6697C42.5348 59.2037 43.2523 59.9264 43.2523 60.7978V65.2625C43.2523 65.3098 43.2523 65.3706 43.2389 65.4246L43.2925 65.4652C43.3395 66.7485 43.3194 68.2818 43.0847 69.7611H45.5658V13.3267H2.42079V69.7476H26.1995L21.0092 61.4665C20.6873 60.7032 20.7276 60.1899 21.0495 59.8521C22.4376 58.9403 24.7175 60.8788 27.2322 63.6144L27.3261 63.5942V52.5099C27.3261 51.6994 27.9899 51.0307 28.7946 51.0307L28.7745 51.0509ZM29.7267 46.7753C29.7267 47.2144 29.3713 47.5588 28.9489 47.5588C28.513 47.5588 28.171 47.2008 28.171 46.7753V43.6209C28.171 43.1819 28.5264 42.8374 28.9489 42.8374C29.3847 42.8374 29.7267 43.1954 29.7267 43.6209V46.7753ZM22.6588 53.2394C23.0947 53.2394 23.4367 53.5974 23.4367 54.023C23.4367 54.462 23.0813 54.8065 22.6588 54.8065H19.5272C19.0914 54.8065 18.7494 54.4485 18.7494 54.023C18.7494 53.5839 19.1048 53.2394 19.5272 53.2394H22.6588ZM24.8785 48.5653C25.1802 48.8692 25.1802 49.3691 24.8785 49.673C24.5767 49.977 24.0805 49.977 23.7787 49.673L21.5725 47.444C21.2707 47.1401 21.2707 46.6402 21.5725 46.3363C21.8743 46.0323 22.3705 46.0323 22.6723 46.3363L24.8785 48.5653ZM35.0847 54.7997C34.6488 54.7997 34.3068 54.4417 34.3068 54.0162C34.3068 53.5772 34.6622 53.2327 35.0847 53.2327H38.2163C38.6521 53.2327 38.9941 53.5907 38.9941 54.0162C38.9941 54.4552 38.6387 54.7997 38.2163 54.7997H35.0847ZM33.9715 49.4974C33.6697 49.8013 33.1735 49.8013 32.8718 49.4974C32.57 49.1934 32.57 48.6936 32.8718 48.3896L35.078 46.1606C35.3797 45.8567 35.8759 45.8567 36.1777 46.1606C36.4795 46.4646 36.4795 46.9644 36.1777 47.2684L33.9715 49.4974ZM7.85918 44.2491H12.6404C13.8407 44.2491 14.8198 45.2353 14.8198 46.4443V51.2603C14.8198 52.4694 13.8407 53.4556 12.6404 53.4556H7.85918C6.65884 53.4556 5.6798 52.4694 5.6798 51.2603V46.4443C5.67309 45.242 6.65884 44.2491 7.85918 44.2491ZM35.3596 30.4766H40.1408C41.3412 30.4766 42.3202 31.4627 42.3202 32.6718V37.4878C42.3202 38.6969 41.3412 39.683 40.1408 39.683H35.3596C34.1593 39.683 33.1802 38.6969 33.1802 37.4878V32.6718C33.1802 31.4627 34.166 30.4766 35.3596 30.4766ZM21.606 30.4766H26.3873C27.5876 30.4766 28.5666 31.4627 28.5666 32.6718V37.4878C28.5666 38.6969 27.5876 39.683 26.3873 39.683H21.606C20.4057 39.683 19.4267 38.6969 19.4267 37.4878V32.6718C19.4267 31.4627 20.4124 30.4766 21.606 30.4766ZM7.85918 30.4766H12.6404C13.8407 30.4766 14.8198 31.4627 14.8198 32.6718V37.4878C14.8198 38.6969 13.8407 39.683 12.6404 39.683H7.85918C6.65884 39.683 5.6798 38.6969 5.6798 37.4878V32.6718C5.67309 31.4627 6.65884 30.4766 7.85918 30.4766ZM35.3596 16.704H40.1408C41.3412 16.704 42.3202 17.6902 42.3202 18.8993V23.7153C42.3202 24.9243 41.3412 25.9105 40.1408 25.9105H35.3596C34.1593 25.9105 33.1802 24.9243 33.1802 23.7153V18.8993C33.1802 17.6902 34.166 16.704 35.3596 16.704ZM21.606 16.704H26.3873C27.5876 16.704 28.5666 17.6902 28.5666 18.8993V23.7153C28.5666 24.9243 27.5876 25.9105 26.3873 25.9105H21.606C20.4057 25.9105 19.4267 24.9243 19.4267 23.7153V18.8993C19.4267 17.6902 20.4124 16.704 21.606 16.704ZM7.85918 16.704H12.6404C13.8407 16.704 14.8198 17.6902 14.8198 18.8993V23.7153C14.8198 24.9243 13.8407 25.9105 12.6404 25.9105H7.85918C6.65884 25.9105 5.6798 24.9243 5.6798 23.7153V18.8993C5.67309 17.6902 6.65884 16.704 7.85918 16.704ZM23.9866 72.4359C25.9179 72.4359 27.5004 74.0029 27.5004 75.9753C27.5004 77.9206 25.9447 79.5146 23.9866 79.5146C22.0553 79.5146 20.4728 77.9476 20.4728 75.9753C20.4795 74.03 22.0352 72.4359 23.9866 72.4359Z" fill="#E0E0E0"/>
</g>
<defs>
<clipPath id="clip0">
<rect width="48" height="83" fill="white"/>
</clipPath>
</defs>
</svg>
