<svg width="65" height="61" viewBox="0 0 65 61" fill="none" xmlns="http://www.w3.org/2000/svg">
<g clip-path="url(#clip0)">
<path d="M62.7678 5.09414C63.1222 5.02538 63.4925 5.09414 63.7993 5.27928C64.323 5.49616 64.6933 6.00926 64.6933 6.61229L64.9948 48.7078C65.0212 49.2262 64.7673 49.7393 64.2912 50.0197L47.0997 60.2764C46.8564 60.4616 46.5548 60.5674 46.2269 60.5674C46.1475 60.5674 46.0682 60.5621 45.9941 60.5462L1.38069 55.5845C0.613678 55.5527 7.09189e-05 54.918 7.09189e-05 54.1404V11.3307C-0.0157982 10.7594 0.306874 10.204 0.867584 9.96068L23.2484 0.121811C23.4811 0.0160171 23.7456 -0.0263006 24.0207 0.0107274L62.7678 5.09414ZM47.6815 17.9111V56.5578L62.1013 47.9567L61.821 8.99795L47.6815 17.9111ZM44.7775 57.494V18.3184L25.7504 15.8904L25.1262 34.0712L18.4453 29.522L11.7644 33.2989L13.145 14.2824L2.90412 12.9758V52.8444L44.7775 57.494ZM41.7676 5.25812L27.734 13.2244L45.9888 15.5519L58.7847 7.49038L41.7676 5.25812ZM14.9329 11.5899L28.5381 3.5231L24.0524 2.93594L6.73917 10.5478L14.9329 11.5899Z" fill="#E0E0E0"/>
</g>
<defs>
<clipPath id="clip0">
<rect width="65" height="60.5672" fill="white"/>
</clipPath>
</defs>
</svg>
