<svg width="65" height="75" viewBox="0 0 65 75" fill="none" xmlns="http://www.w3.org/2000/svg">
<g clip-path="url(#clip0)">
<path fill-rule="evenodd" clip-rule="evenodd" d="M53.218 55.2823C53.218 55.0288 53.218 54.7692 53.218 54.5157C53.218 54.2622 53.218 54.0027 53.2241 53.7431C53.5681 53.725 53.8518 53.6164 54.0691 53.4112C54.2864 53.212 54.4011 52.9706 54.4252 52.6869C54.4493 52.367 54.3467 52.0893 54.1234 51.8419C53.9001 51.6004 53.5379 51.4616 53.0551 51.4254C52.5963 51.3892 52.2402 51.4737 51.9807 51.6789C51.7211 51.8841 51.5582 52.1557 51.5039 52.5118C51.4375 52.9524 51.5642 53.3629 51.8962 53.7371C51.7755 54.1475 51.6547 54.558 51.534 54.9684C50.8459 54.7873 50.1639 54.6063 49.4879 54.4252C48.8179 54.2441 48.154 54.063 47.49 53.882C47.659 53.206 47.828 52.5299 47.997 51.8539C48.166 51.1779 48.335 50.5019 48.498 49.8259C48.9265 49.8561 49.3491 49.8923 49.7776 49.9285C49.675 50.4114 49.5724 50.8942 49.4698 51.3771C49.3672 51.86 49.2646 52.3428 49.1619 52.8257C49.5845 52.9404 50.007 53.049 50.4355 53.1637C50.3329 52.8076 50.3148 52.4575 50.3812 52.0954C50.4415 51.7574 50.5623 51.4435 50.7252 51.1658C50.8882 50.8882 51.1055 50.6407 51.365 50.4174C51.8841 49.9828 52.4937 49.7897 53.1939 49.85C53.7794 49.8983 54.2864 50.1277 54.727 50.5502C55.0288 50.8339 55.2581 51.1658 55.403 51.5401C55.5479 51.9143 55.6143 52.3308 55.5962 52.7955C55.578 53.1637 55.5117 53.4957 55.403 53.7914C55.2883 54.0872 55.1254 54.3407 54.9141 54.564C54.4856 54.9986 53.9182 55.24 53.218 55.2823ZM3.80862 0H49.9949C51.0391 0 51.9928 0.428545 52.6869 1.11663C52.711 1.14077 52.7352 1.16492 52.7533 1.1951C53.3991 1.87715 53.8035 2.80063 53.8035 3.80862V41.9431C53.2361 41.9069 52.6688 41.8948 52.1074 41.8948C51.9143 41.8948 51.7211 41.9008 51.528 41.9008V3.80862C51.528 3.41025 51.3771 3.0481 51.1236 2.77649L51.0753 2.73424C50.7977 2.45659 50.4174 2.28155 49.9949 2.28155H3.80862C3.38611 2.28155 3.00585 2.45055 2.7282 2.7282H2.72217C2.45055 3.00585 2.28155 3.38611 2.28155 3.80862V66.2675C2.28155 66.6659 2.43244 67.028 2.68595 67.2997L2.73424 67.3419C3.01189 67.6195 3.39214 67.7946 3.81465 67.7946H34.8872V68.2231C34.8872 68.8569 34.9475 69.4725 35.0622 70.0701H3.80862C2.76442 70.0701 1.81075 69.6416 1.11663 68.9535C1.09249 68.9293 1.06834 68.9052 1.05024 68.875C0.398366 68.193 0 67.2755 0 66.2675V3.80862C0 2.76442 0.428545 1.81075 1.11663 1.12267L1.12267 1.11663C1.81679 0.428545 2.76442 0 3.80862 0ZM40.5005 11.6492H41.8163V18.7473H40.5005V11.6492ZM9.37366 29.5575H15.832C16.3813 29.5575 16.84 30.0102 16.84 30.5655V36.0159C16.84 36.5651 16.3873 37.0239 15.832 37.0239H9.37366C8.8244 37.0239 8.36568 36.5712 8.36568 36.0159V30.5655C8.37171 30.0042 8.8244 29.5575 9.37366 29.5575ZM9.37366 55.4573H15.832C16.3813 55.4573 16.84 55.91 16.84 56.4653V61.9157C16.84 62.471 16.3873 62.9237 15.832 62.9237H9.37366C8.8244 62.9237 8.36568 62.471 8.36568 61.9157V56.4653C8.37171 55.91 8.8244 55.4573 9.37366 55.4573ZM9.37366 42.5044H15.832C16.3813 42.5044 16.84 42.9571 16.84 43.5124V48.9628C16.84 49.512 16.3873 49.9707 15.832 49.9707H9.37366C8.8244 49.9707 8.36568 49.5181 8.36568 48.9628V43.5124C8.37171 42.9571 8.8244 42.5044 9.37366 42.5044ZM37.9836 29.5575H44.4359C44.9851 29.5575 45.4378 30.0102 45.4378 30.5655V36.0159C45.4378 36.5651 44.9851 37.0239 44.4359 37.0239H37.9836C37.4343 37.0239 36.9756 36.5712 36.9756 36.0159V30.5655C36.9756 30.0042 37.4283 29.5575 37.9836 29.5575ZM37.9836 42.5044H44.4359C44.7196 42.5044 44.9791 42.6251 45.1662 42.8183C41.7741 43.7659 38.8346 45.4197 36.9816 47.7435V43.5124C36.9756 42.9571 37.4283 42.5044 37.9836 42.5044ZM23.6786 29.5575H30.137C30.6862 29.5575 31.145 30.0102 31.145 30.5655V36.0159C31.145 36.5651 30.6923 37.0239 30.137 37.0239H23.6786C23.1294 37.0239 22.6706 36.5712 22.6706 36.0159V30.5655C22.6706 30.0042 23.1233 29.5575 23.6786 29.5575ZM23.6786 55.4573H30.137C30.6862 55.4573 31.145 55.91 31.145 56.4653V61.9157C31.145 62.471 30.6923 62.9237 30.137 62.9237H23.6786C23.1294 62.9237 22.6706 62.471 22.6706 61.9157V56.4653C22.6706 55.91 23.1233 55.4573 23.6786 55.4573ZM23.6786 42.5044H30.137C30.6862 42.5044 31.145 42.9571 31.145 43.5124V48.9628C31.145 49.512 30.6923 49.9707 30.137 49.9707H23.6786C23.1294 49.9707 22.6706 49.5181 22.6706 48.9628V43.5124C22.6706 42.9571 23.1233 42.5044 23.6786 42.5044ZM8.52261 7.43616H45.2749C45.8302 7.43616 46.3372 7.66552 46.6993 8.02767C46.7295 8.05785 46.7536 8.08803 46.7838 8.11821C47.0977 8.47432 47.2908 8.94512 47.2908 9.45213V20.9383C47.2908 21.4936 47.0675 21.9946 46.6993 22.3628L46.6933 22.3688C46.3311 22.731 45.8241 22.9603 45.2688 22.9603H8.52261C7.96731 22.9603 7.4603 22.731 7.09815 22.3688C7.06797 22.3387 7.03779 22.3085 7.01365 22.2783C6.69979 21.9222 6.50664 21.4514 6.50664 20.9444V9.45213C6.50664 8.90287 6.736 8.40189 7.09815 8.03371L7.10419 8.02767C7.47237 7.66552 7.97335 7.43616 8.52261 7.43616ZM45.0153 9.71771H8.78819V20.6788H45.0153V9.71771ZM64.4025 65.2354C64.7887 65.8873 65 66.5753 65 67.2876C65 71.0841 59.1271 74.1624 51.8841 74.1624C44.6411 74.1624 38.7682 71.0841 38.7682 67.2876C38.7682 66.5753 38.9795 65.8812 39.3658 65.2354C41.0317 68.03 46.0112 70.058 51.8841 70.058C57.763 70.058 62.7366 68.036 64.4025 65.2354ZM51.8841 48.3531C57.8355 48.3531 62.6641 50.2484 62.6641 52.5782C62.6641 54.9141 57.8355 56.8033 51.8841 56.8033C45.9328 56.8033 41.1041 54.9201 41.1041 52.5843C41.1041 50.2484 45.9328 48.3531 51.8841 48.3531ZM51.8841 46.9528C59.1271 46.9528 65 50.0311 65 53.8276C65 57.6242 59.1271 60.7025 51.8841 60.7025C44.6411 60.6964 38.7682 57.6182 38.7682 53.8276C38.7682 50.0311 44.6411 46.9528 51.8841 46.9528ZM64.4447 58.4088C64.8008 59.0305 64.994 59.7005 64.994 60.3826C64.994 64.1791 59.1211 67.2574 51.8781 67.2574C44.6351 67.2574 38.7622 64.1791 38.7622 60.3826C38.7622 59.6945 38.9553 59.0366 39.3114 58.4088C40.9351 61.2397 45.9448 63.31 51.8781 63.31C57.8173 63.31 62.8331 61.2457 64.4447 58.4088Z" fill="#E0E0E0"/>
</g>
<defs>
<clipPath id="clip0">
<rect width="65" height="74.1684" fill="white"/>
</clipPath>
</defs>
</svg>
