<svg width="65" height="61" viewBox="0 0 65 61" fill="none" xmlns="http://www.w3.org/2000/svg">
<g clip-path="url(#clip0)">
<path d="M19.043 36.1543C19.043 36.5749 18.6991 36.9113 18.2813 36.9113C17.8581 36.9113 17.5195 36.5696 17.5195 36.1543V17.6146H1.52344V54.9779H4.163C4.58618 54.9779 4.92472 55.3196 4.92472 55.7349C4.92472 56.1554 4.58089 56.4918 4.163 56.4918H0.761719C0.338542 56.4918 0 56.1501 0 55.7349V17.2098C0 16.905 0.126953 16.6264 0.327962 16.4214C0.528971 16.2216 0.809326 16.0955 1.12142 16.0955H17.5195V1.3299C17.5195 0.9672 17.6676 0.630782 17.911 0.394239V0.388982C18.1543 0.147183 18.4876 0 18.8578 0H46.0205C46.3908 0 46.724 0.147183 46.9674 0.388982L47.0256 0.452061C47.2319 0.688604 47.3641 0.993482 47.3641 1.3299V16.0955H63.8786C64.1854 16.0955 64.4657 16.2216 64.6667 16.4214L64.672 16.4266C64.873 16.6264 65 16.905 65 17.2098V55.7349C65 56.1554 64.6562 56.4918 64.2383 56.4918H59.4035C58.9803 56.4918 58.6418 56.1501 58.6418 55.7349C58.6418 55.3144 58.9856 54.9779 59.4035 54.9779H63.4766V17.6146H47.3588V35.9336C47.3588 36.3541 47.015 36.6905 46.5971 36.6905C46.1739 36.6905 45.8354 36.3488 45.8354 35.9336V1.51388H19.043V36.1543ZM51.3896 36.0282H59.8002C59.869 36.0282 59.9272 36.0702 59.9272 36.1175V38.5881C59.9272 38.6407 59.869 38.6827 59.8002 38.6827H51.3896C51.3208 38.6827 51.2626 38.6407 51.2626 38.5881V36.1175C51.2626 36.0702 51.3208 36.0282 51.3896 36.0282ZM5.13631 36.0282H13.547C13.6157 36.0282 13.6739 36.0702 13.6739 36.1175V38.5881C13.6739 38.6407 13.6157 38.6827 13.547 38.6827H5.13631C5.06755 38.6827 5.00936 38.6407 5.00936 38.5881V36.1175C5.00936 36.0702 5.06755 36.0282 5.13631 36.0282ZM22.4601 4.45227H42.4235C42.7568 4.45227 43.0318 4.72561 43.0318 5.05677V11.5275C43.0318 11.8587 42.7568 12.132 42.4235 12.132H22.4601C22.1269 12.132 21.8518 11.8587 21.8518 11.5275V5.05677C21.8465 4.72561 22.1216 4.45227 22.4601 4.45227ZM51.5218 55.204C50.9664 54.0948 50.2629 53.1539 49.4377 52.2708C50.9823 52.8648 52.5639 53.4536 53.7329 54.1842C55.8594 55.5089 56.0181 57.1121 56.1926 59.4144H45.6502C45.6502 59.3987 45.6502 59.3776 45.6502 59.3619L45.4545 57.7166L46.2109 58.3684L49.9137 55.1672L51.5218 55.204ZM13.7956 52.6073L15.1339 56.5181L15.8057 54.1947L15.4777 53.8373C15.3296 53.6218 15.2979 53.4325 15.3772 53.2696C15.557 52.9174 15.9273 52.9857 16.2712 52.9857C16.6309 52.9857 17.0805 52.9174 17.1916 53.3694C17.2286 53.5219 17.181 53.6796 17.0752 53.8425L16.7472 54.2L17.419 56.5234L18.6304 52.6125C18.8049 52.7702 19.0535 52.9016 19.3392 53.0173C19.2387 53.2275 19.1488 53.443 19.0694 53.6743C18.8631 54.2683 18.7309 54.9254 18.6727 55.656H18.678C18.678 55.6718 18.678 55.6928 18.6727 55.7086L18.3818 59.4197H8.69629C8.11442 59.3777 7.8182 59.078 7.77059 58.5629L7.9716 56.5128C8.02979 55.7822 8.23608 55.2092 8.56934 54.7677C8.7915 54.4786 9.06657 54.2631 9.36808 54.0948C10.3308 53.5429 12.9228 53.3905 13.7956 52.6073ZM13.1396 47.0616C13.0074 47.0721 12.9122 47.1037 12.8381 47.1457C12.7958 47.172 12.7694 47.2088 12.7482 47.2509C12.7271 47.2982 12.7165 47.3612 12.7165 47.4296C12.7218 47.6451 12.8381 47.9342 13.0656 48.2654L13.0709 48.2706L13.8167 49.4533C14.113 49.9264 14.4303 50.4048 14.8112 50.757C15.1762 51.0881 15.6258 51.3141 16.213 51.3194C16.853 51.3194 17.3185 51.0881 17.6994 50.7359C18.0961 50.368 18.4135 49.8528 18.7256 49.343L19.5667 47.9657C19.7359 47.582 19.7888 47.3507 19.7359 47.2403C19.7042 47.172 19.5614 47.1562 19.3339 47.172C19.1858 47.2035 19.0377 47.1773 18.8737 47.0932L19.2916 45.8421C17.7523 45.8211 16.6943 45.5583 15.4513 44.7645C15.0439 44.507 14.917 44.2073 14.5097 44.2336C14.1976 44.2914 13.9384 44.4334 13.7321 44.6541C13.5311 44.8644 13.383 45.1535 13.2878 45.5267L13.5364 47.0301C13.4041 47.1089 13.2719 47.1142 13.1396 47.0616ZM19.81 46.6884C19.9898 46.741 20.1221 46.8461 20.2067 47.0038C20.3337 47.2614 20.2861 47.6398 20.048 48.176C20.0427 48.1865 20.0374 48.197 20.0321 48.2075L19.1805 49.6005C18.8525 50.1419 18.514 50.6834 18.0644 51.1039C17.5936 51.5402 17.017 51.8293 16.2236 51.8293C15.483 51.8293 14.9276 51.5454 14.4727 51.1302C14.0336 50.7307 13.7004 50.2208 13.3883 49.7214L12.6424 48.5387C12.3621 48.1234 12.2192 47.745 12.2087 47.4348C12.2034 47.2824 12.2298 47.1457 12.288 47.0248C12.3462 46.8987 12.4414 46.7883 12.5631 46.7094C12.6213 46.6674 12.69 46.6358 12.7694 46.6096C12.7218 45.9788 12.7059 45.1956 12.7376 44.5332C12.7535 44.3703 12.7852 44.2126 12.8276 44.0496C13.018 43.3715 13.4993 42.8249 14.0918 42.4517C14.3034 42.3202 14.5308 42.2099 14.7742 42.1205C16.213 41.6054 18.1173 41.8839 19.1382 42.9826C19.5561 43.4294 19.8153 44.0234 19.8682 44.8066L19.81 46.6884ZM27.3372 41.4529C27.168 41.4739 27.041 41.516 26.9458 41.5738C26.8823 41.6159 26.84 41.6684 26.8136 41.7263C26.7818 41.7998 26.766 41.8892 26.766 41.9891C26.7765 42.3097 26.9511 42.7408 27.2843 43.2349L27.2896 43.2454L28.4058 45.0116C28.8501 45.716 29.3156 46.4308 29.8922 46.9565C30.4423 47.4559 31.1035 47.7923 31.9816 47.7923C32.9338 47.7923 33.632 47.4454 34.1927 46.9197C34.7852 46.3678 35.2612 45.6056 35.7214 44.8434L36.9751 42.7933C37.229 42.2204 37.3031 41.8734 37.2237 41.7157C37.1708 41.6106 36.9539 41.5843 36.5837 41.6211C36.5572 41.6211 36.5255 41.6211 36.499 41.6211C36.3456 41.6211 36.1816 41.5843 35.9965 41.5002L36.5625 39.6289C34.2615 39.6026 32.6904 39.2031 30.8285 38.0204C30.2148 37.6314 30.035 37.1899 29.4214 37.2319C28.9612 37.3213 28.5697 37.5263 28.2629 37.8575C27.9667 38.1728 27.7445 38.6039 27.5964 39.1611L27.9932 41.4266C27.7657 41.5318 27.5435 41.5423 27.3372 41.4529ZM28.374 49.7214L30.3735 55.5614L31.3786 52.0974L30.8866 51.5612C30.6645 51.2406 30.6169 50.9567 30.7385 50.7149C31.003 50.1893 31.5584 50.2891 32.0715 50.2891C32.6111 50.2891 33.2776 50.1893 33.4469 50.8568C33.505 51.0829 33.431 51.3141 33.2723 51.5612L32.7804 52.0974L33.7854 55.5614L35.5945 49.7214C36.901 50.8884 40.26 51.1249 41.6988 51.9186C42.0903 52.1342 42.4447 52.4022 42.7462 52.7439C42.7515 52.7071 42.762 52.6651 42.7832 52.6335C42.9419 52.3234 43.2699 52.3812 43.5767 52.3812C43.8993 52.3812 44.2961 52.3234 44.3966 52.7229C44.4283 52.8543 44.386 52.9962 44.2961 53.1434L44.0051 53.4641L44.6029 55.5246L43.8359 56.1291L44.0898 59.4355C44.0157 60.2082 43.5767 60.6497 42.7091 60.7181H21.2647C20.3971 60.6497 19.9581 60.2082 19.884 59.4355L20.1855 55.5404C20.2702 54.4523 20.577 53.5902 21.0795 52.9332C21.4075 52.5021 21.8201 52.1815 22.275 51.9292C23.7085 51.1249 27.0675 50.8884 28.374 49.7214ZM37.3454 40.8905C37.6152 40.9693 37.8162 41.1218 37.9378 41.3636C38.1283 41.7473 38.0542 42.3097 37.6998 43.114C37.6945 43.1297 37.6839 43.1455 37.6786 43.1613L36.4038 45.2429C35.9119 46.0524 35.4093 46.8566 34.7375 47.4821C34.034 48.134 33.1718 48.5702 31.9922 48.565C30.8866 48.565 30.0562 48.1445 29.3738 47.5242C28.7179 46.9302 28.2259 46.168 27.7498 45.4216L26.6337 43.6554C26.2158 43.0404 26.0042 42.4727 25.9884 42.0049C25.9831 41.7788 26.0201 41.5738 26.1047 41.3951C26.1947 41.2059 26.3322 41.0429 26.5173 40.922C26.6073 40.8589 26.7131 40.8116 26.8241 40.7696C26.7554 39.8234 26.7342 38.6564 26.7765 37.6735C26.803 37.4317 26.8453 37.1951 26.9141 36.9533C27.1997 35.9388 27.9138 35.1241 28.8025 34.5669C29.1146 34.3671 29.4584 34.2042 29.8181 34.078C31.9604 33.3053 34.8063 33.7258 36.3298 35.3659C36.9487 36.0334 37.3401 36.9165 37.4247 38.0835L37.3454 40.8905ZM41.2227 50.5309L42.2066 50.5046L43.0265 50.4836C42.0744 47.5662 42.3918 44.8854 44.6875 42.6041C45.0789 43.8551 45.9517 44.8907 47.4382 45.6529C48.147 46.1785 48.8346 46.8093 49.5011 47.54C49.6175 47.0564 49.1679 46.4729 48.623 45.8684C49.1256 46.1155 49.5911 46.4624 49.919 47.13C50.2999 47.9027 50.2946 48.5545 50.1676 49.3955C50.1095 49.7845 50.0142 50.1525 49.8767 50.4836H51.2362C52.6697 47.4348 51.7598 42.909 48.8293 40.9903C47.9301 40.4016 47.2848 40.4226 46.2268 40.4226C45.0208 40.4226 44.4019 40.4594 43.3651 41.1428C41.8416 42.1468 40.9001 43.8814 40.5086 46.2889C40.4293 47.4927 40.3764 49.569 41.2227 50.5309ZM51.3896 30.6297H59.8002C59.869 30.6297 59.9272 30.6718 59.9272 30.7244V33.1949C59.9272 33.2475 59.869 33.2895 59.8002 33.2895H51.3896C51.3208 33.2895 51.2626 33.2475 51.2626 33.1949V30.7244C51.2626 30.6718 51.3208 30.6297 51.3896 30.6297ZM51.3896 25.226H59.8002C59.869 25.226 59.9272 25.2681 59.9272 25.3207V27.7912C59.9272 27.8438 59.869 27.8858 59.8002 27.8858H51.3896C51.3208 27.8858 51.2626 27.8438 51.2626 27.7912V25.3207C51.2626 25.2681 51.3208 25.226 51.3896 25.226ZM5.13631 30.6297H13.547C13.6157 30.6297 13.6739 30.6718 13.6739 30.7244V33.1949C13.6739 33.2475 13.6157 33.2895 13.547 33.2895H5.13631C5.06755 33.2895 5.00936 33.2475 5.00936 33.1949V30.7244C5.00936 30.6718 5.06755 30.6297 5.13631 30.6297ZM5.13631 25.226H13.547C13.6157 25.226 13.6739 25.2681 13.6739 25.3207V27.7912C13.6739 27.8438 13.6157 27.8858 13.547 27.8858H5.13631C5.06755 27.8858 5.00936 27.8438 5.00936 27.7912V25.3207C5.00936 25.2681 5.06755 25.226 5.13631 25.226ZM37.9114 25.799H42.4023C42.4711 25.799 42.5293 25.8568 42.5293 25.9252V30.3879C42.5293 30.4563 42.4711 30.5141 42.4023 30.5141H37.9114C37.8426 30.5141 37.7844 30.4563 37.7844 30.3879V25.9252C37.7844 25.8568 37.8426 25.799 37.9114 25.799ZM30.1937 25.799H34.6847C34.7534 25.799 34.8116 25.8568 34.8116 25.9252V30.3879C34.8116 30.4563 34.7534 30.5141 34.6847 30.5141H30.1937C30.1249 30.5141 30.0667 30.4563 30.0667 30.3879V25.9252C30.0667 25.8568 30.1249 25.799 30.1937 25.799ZM22.476 25.799H26.967C27.0357 25.799 27.0939 25.8568 27.0939 25.9252V30.3879C27.0939 30.4563 27.0357 30.5141 26.967 30.5141H22.476C22.4072 30.5141 22.349 30.4563 22.349 30.3879V25.9252C22.349 25.8568 22.4072 25.799 22.476 25.799ZM37.9114 17.1415H42.4023C42.4711 17.1415 42.5293 17.1993 42.5293 17.2677V21.7305C42.5293 21.7988 42.4711 21.8566 42.4023 21.8566H37.9114C37.8426 21.8566 37.7844 21.7988 37.7844 21.7305V17.2677C37.7844 17.1941 37.8426 17.1415 37.9114 17.1415ZM30.1937 17.1415H34.6847C34.7534 17.1415 34.8116 17.1993 34.8116 17.2677V21.7305C34.8116 21.7988 34.7534 21.8566 34.6847 21.8566H30.1937C30.1249 21.8566 30.0667 21.7988 30.0667 21.7305V17.2677C30.0667 17.1941 30.1249 17.1415 30.1937 17.1415ZM22.476 17.1415H26.967C27.0357 17.1415 27.0939 17.1993 27.0939 17.2677V21.7305C27.0939 21.7988 27.0357 21.8566 26.967 21.8566H22.476C22.4072 21.8566 22.349 21.7988 22.349 21.7305V17.2677C22.349 17.1941 22.4072 17.1415 22.476 17.1415Z" fill="#E0E0E0"/>
</g>
<defs>
<clipPath id="clip0">
<rect width="65" height="60.7075" fill="white"/>
</clipPath>
</defs>
</svg>
