<svg width="65" height="65" viewBox="0 0 65 65" fill="none" xmlns="http://www.w3.org/2000/svg">
<path d="M32.5 0C14.56 0 0 14.56 0 32.5C0 50.44 14.56 65 32.5 65H48.75V58.5H32.5C18.395 58.5 6.5 46.605 6.5 32.5C6.5 18.395 18.395 6.5 32.5 6.5C46.605 6.5 58.5 18.395 58.5 32.5V37.1475C58.5 39.715 56.1925 42.25 53.625 42.25C51.0575 42.25 48.75 39.715 48.75 37.1475V32.5C48.75 23.53 41.47 16.25 32.5 16.25C23.53 16.25 16.25 23.53 16.25 32.5C16.25 41.47 23.53 48.75 32.5 48.75C36.985 48.75 41.08 46.93 44.005 43.9725C46.1175 46.865 49.7575 48.75 53.625 48.75C60.0275 48.75 65 43.55 65 37.1475V32.5C65 14.56 50.44 0 32.5 0ZM32.5 42.25C27.105 42.25 22.75 37.895 22.75 32.5C22.75 27.105 27.105 22.75 32.5 22.75C37.895 22.75 42.25 27.105 42.25 32.5C42.25 37.895 37.895 42.25 32.5 42.25Z" fill="#E0E0E0"/>
</svg>
