<svg width="85" height="85" viewBox="0 0 85 85" fill="none" xmlns="http://www.w3.org/2000/svg">
<path d="M46.1111 31.6667H38.8889V38.8889H46.1111V31.6667ZM60.5556 31.6667H53.3333V38.8889H60.5556V31.6667ZM71.3889 55.1389C66.875 55.1389 62.5417 54.4167 58.4972 53.0806C57.2333 52.6833 55.825 52.9722 54.8139 53.9472L46.8694 61.8917C36.65 56.6917 28.2722 48.35 23.0722 38.1306L31.0167 30.15C32.0278 29.175 32.3167 27.7667 31.9194 26.5028C30.5833 22.4583 29.8611 18.125 29.8611 13.6111C29.8611 11.625 28.2361 10 26.25 10H13.6111C11.625 10 10 11.625 10 13.6111C10 47.5194 37.4806 75 71.3889 75C73.375 75 75 73.375 75 71.3889V58.75C75 56.7639 73.375 55.1389 71.3889 55.1389ZM67.7778 31.6667V38.8889H75V31.6667H67.7778Z" fill="#E0E0E0"/>
</svg>
